<?xml version="1.0" encoding="UTF-8"?>
<svg width="89" height="89" viewBox="0 0 89 89" fill="none" xmlns="http://www.w3.org/2000/svg">
<rect width="89" height="89" rx="4" fill="white" fill-opacity="0.15"/>
<path d="M44.2969 72.3281C30.1289 72.3281 14.8438 63.4414 14.8438 43.9414C14.8438 24.4414 30.1289 15.5547 44.2969 15.5547C52.168 15.5547 59.4297 18.1445 64.8125 22.8672C70.6523 28.0469 73.75 35.3594 73.75 43.9414C73.75 52.5234 70.6523 59.7852 64.8125 64.9648C59.4297 69.6875 52.1172 72.3281 44.2969 72.3281Z" fill="url(#paint0_radial_1607_30826)"/>
<path d="M68.6156 27.0668C71.3223 31.434 72.734 36.634 72.734 42.418C72.734 51 69.6363 58.2617 63.7965 63.4414C58.4137 68.1641 51.1012 70.8047 43.2809 70.8047C34.1098 70.8047 24.4918 67.0723 18.8145 59.1555C24.2785 68.1234 34.5566 72.3281 44.2965 72.3281C52.1168 72.3281 59.4293 69.6875 64.8121 64.9649C70.652 59.7852 73.7496 52.5234 73.7496 43.9414C73.7496 37.4719 71.9875 31.7234 68.6156 27.0668Z" fill="#D84213"/>
<path d="M54.6256 64.3758C54.453 64.3098 54.2955 64.2031 54.1737 64.0609C49.2326 58.927 41.0619 58.7695 35.928 63.7105C35.8112 63.8273 35.6893 63.9441 35.5776 64.0609C35.4557 64.2031 35.2983 64.3098 35.1256 64.3758C34.7448 64.518 34.3131 64.4367 34.0084 64.1676C33.7088 63.9035 33.6073 63.482 33.7596 63.1113C35.2729 59.2266 39.7721 56.1797 44.8756 56.1797C49.9791 56.1797 54.4783 59.2266 55.9916 63.1062C56.144 63.477 56.0424 63.8984 55.7428 64.1625C55.4381 64.4316 55.0065 64.5129 54.6256 64.3758Z" fill="#422B0D"/>
<path d="M41.5242 46.9477C40.3867 45.5156 35.6996 42.7633 34.0086 41.9609C33.3789 41.6715 32.7238 41.4379 32.0535 41.2652C31.9316 41.2297 31.7996 41.2144 31.6726 41.2144C30.9972 41.2297 30.4183 41.7121 30.2812 42.3773C30.1238 43.068 30.4793 43.7789 31.1293 44.0633C31.9265 44.4543 33.3179 45.1957 34.7601 46.0133C33.5566 46.7293 32.8203 48.0293 32.8203 49.4309V50.1723C32.8203 52.2746 34.5265 53.9809 36.6289 53.9809C38.7312 53.9809 40.4375 52.2746 40.4375 50.1723V49.4309C40.4375 49.4004 40.4375 49.375 40.4375 49.3445C40.9808 49.309 41.4683 48.984 41.707 48.4965C41.9558 47.9887 41.8847 47.3844 41.5242 46.9477Z" fill="#422B0D"/>
<path d="M59.4909 42.3773C59.3487 41.707 58.7597 41.2297 58.0741 41.2246C57.9472 41.2246 57.8151 41.2398 57.6933 41.2754C57.0229 41.443 56.3679 41.6766 55.7382 41.9609C54.0472 42.7531 49.3601 45.5156 48.2226 46.9375C47.862 47.3793 47.8011 47.9887 48.055 48.4965C48.2987 48.9891 48.7811 49.309 49.3296 49.3445C49.3296 49.375 49.3296 49.4004 49.3296 49.4309V50.1723C49.3296 52.2746 51.0358 53.9809 53.1382 53.9809C55.2405 53.9809 56.9468 52.2746 56.9468 50.1723V49.4309C56.9468 48.0344 56.2104 46.7395 55.012 46.0234C56.4542 45.2059 57.8456 44.4645 58.6429 44.0734C59.2979 43.7891 59.6585 43.073 59.4909 42.3773Z" fill="#422B0D"/>
<path d="M36.4359 46.7598C35.7148 46.4145 34.8464 46.7191 34.496 47.4402C34.2269 48.0039 34.3488 48.6793 34.8007 49.116C35.5218 49.4613 36.3902 49.1566 36.7406 48.4356C37.0097 47.8719 36.8878 47.1965 36.4359 46.7598Z" fill="#896024"/>
<path d="M52.9447 46.7598C52.2236 46.4145 51.3552 46.7191 51.0048 47.4402C50.7357 48.0039 50.8575 48.6793 51.3095 49.116C52.0306 49.4613 52.899 49.1566 53.2493 48.4356C53.5185 47.8719 53.3966 47.1965 52.9447 46.7598Z" fill="#896024"/>
<defs>
<radialGradient id="paint0_radial_1607_30826" cx="0" cy="0" r="1" gradientUnits="userSpaceOnUse" gradientTransform="translate(44.2969 43.9414) scale(28.9248 28.9248)">
<stop offset="0.12" stop-color="#FAC742"/>
<stop offset="0.32" stop-color="#FAC440"/>
<stop offset="0.48" stop-color="#FBBA3B"/>
<stop offset="0.62" stop-color="#FBA931"/>
<stop offset="0.76" stop-color="#FC9224"/>
<stop offset="0.88" stop-color="#FE7413"/>
<stop offset="1" stop-color="#FF5100"/>
</radialGradient>
</defs>
</svg>
