<?xml version="1.0" encoding="UTF-8"?>
<svg width="89" height="89" viewBox="0 0 89 89" fill="none" xmlns="http://www.w3.org/2000/svg">
<rect width="89" height="89" rx="4" fill="white" fill-opacity="0.15"/>
<path d="M44.2969 72.3281C30.1289 72.3281 14.8438 63.4414 14.8438 43.9414C14.8438 24.4414 30.1289 15.5547 44.2969 15.5547C52.168 15.5547 59.4297 18.1445 64.8125 22.8672C70.6523 28.0469 73.75 35.3594 73.75 43.9414C73.75 52.5234 70.6523 59.7852 64.8125 64.9648C59.4297 69.6875 52.1172 72.3281 44.2969 72.3281Z" fill="url(#paint0_radial_1607_30890)"/>
<path d="M68.6156 27.0668C71.3223 31.434 72.734 36.634 72.734 42.418C72.734 51 69.6363 58.2617 63.7965 63.4414C58.4137 68.1641 51.1012 70.8047 43.2809 70.8047C34.1098 70.8047 24.4918 67.0723 18.8145 59.1555C24.2785 68.1234 34.5566 72.3281 44.2965 72.3281C52.1168 72.3281 59.4293 69.6875 64.8121 64.9649C70.652 59.7852 73.7496 52.5234 73.7496 43.9414C73.7496 37.4719 71.9875 31.7234 68.6156 27.0668Z" fill="#EB8F00"/>
<path d="M36.8836 40.8895L36.8075 40.7879L36.5891 40.5086L36.32 40.2191C36.2082 40.0922 36.0762 39.9703 35.9493 39.8383C35.8223 39.7063 35.6649 39.5793 35.5227 39.4727C35.3907 39.3711 35.2485 39.2746 35.0961 39.1984C34.9946 39.1426 34.8829 39.0969 34.7661 39.0715C34.7305 39.0664 34.695 39.0664 34.6594 39.0715C34.6594 39.0715 34.6289 39.0715 34.6137 39.0715H34.5731C34.634 39.0715 34.436 39.0715 34.7102 39.0715H34.4309C34.3547 39.0715 34.4055 39.0715 34.4309 39.0715H34.4715C34.5122 39.0715 34.4715 39.0715 34.4715 39.0715H34.4157C34.2989 39.0969 34.1872 39.1375 34.0805 39.1984C33.9332 39.2797 33.786 39.3711 33.6539 39.4727C33.5067 39.5844 33.3645 39.7063 33.2325 39.8383C32.9633 40.0973 32.7246 40.3461 32.5723 40.5441L32.3082 40.8488L32.1914 40.9859C31.4602 41.8035 30.2262 41.9356 29.3375 41.2957C28.7688 40.8996 28.4793 40.2141 28.5911 39.5285C28.5911 39.5285 28.6266 39.3254 28.7231 38.9648C28.8754 38.452 29.0887 37.9543 29.3579 37.4871C29.7895 36.7254 30.3735 36.0602 31.0743 35.532C31.5364 35.1766 32.0493 34.8922 32.5977 34.6941C32.75 34.6332 32.9075 34.5875 33.0649 34.5469C33.2325 34.4961 33.4 34.4606 33.5727 34.4301L33.8825 34.3844L34.1414 34.3539H34.4207H34.8219H35.0809C35.2536 34.3539 35.4211 34.3996 35.5887 34.425C35.9137 34.4809 36.2387 34.5672 36.5485 34.684C37.0969 34.882 37.6098 35.1664 38.0719 35.5219C38.7727 36.05 39.3567 36.7152 39.7883 37.477C39.9457 37.741 40.0829 38.0203 40.1946 38.3047C40.2911 38.5332 40.3723 38.7617 40.4383 39.0004C40.4739 39.1223 40.5043 39.2441 40.5196 39.366V39.493C40.6719 40.5289 39.9508 41.4938 38.9149 41.6461C38.8895 41.6512 38.8641 41.6512 38.8387 41.6563C38.0973 41.7629 37.3559 41.4684 36.8836 40.8895Z" fill="#422B0D"/>
<path d="M56.9219 40.8895L56.8407 40.7879L56.6223 40.5086L56.3532 40.2191C56.2414 40.0922 56.1094 39.9703 55.9825 39.8383C55.8555 39.7063 55.6981 39.5793 55.5559 39.4727C55.4239 39.3711 55.2817 39.2746 55.1293 39.1984C55.0278 39.1426 54.9161 39.0969 54.7993 39.0715C54.7637 39.0664 54.7282 39.0664 54.6926 39.0715C54.6926 39.0715 54.6622 39.0715 54.6469 39.0715H54.6063C54.6672 39.0715 54.4692 39.0715 54.7434 39.0715H54.4641C54.3879 39.0715 54.4387 39.0715 54.4641 39.0715H54.5047C54.5454 39.0715 54.5047 39.0715 54.5047 39.0715H54.4489C54.3321 39.0969 54.2204 39.1375 54.1137 39.1984C53.9664 39.2746 53.8243 39.3711 53.6922 39.4727C53.5399 39.5844 53.3977 39.7063 53.2657 39.8383C52.9965 40.0973 52.7579 40.3461 52.6055 40.5441L52.3414 40.8488L52.2297 40.9859C51.4934 41.8035 50.2645 41.9356 49.3707 41.2957C48.802 40.8996 48.5125 40.2141 48.6243 39.5285C48.6243 39.5285 48.6598 39.3254 48.7614 38.9648C48.9137 38.4469 49.1219 37.9492 49.3961 37.4871C49.8278 36.7254 50.4067 36.0602 51.1075 35.532C51.5696 35.1766 52.0825 34.8922 52.6309 34.6941C52.7832 34.6332 52.9407 34.5875 53.0981 34.5469C53.2657 34.4961 53.4332 34.4606 53.6059 34.4301L53.9207 34.3844L54.1747 34.3539H54.4539H54.8551H55.1141C55.2868 34.3539 55.4543 34.3996 55.6219 34.425C55.952 34.4809 56.2719 34.5672 56.5817 34.684C57.1301 34.882 57.643 35.1664 58.1051 35.5219C58.8059 36.05 59.3899 36.7152 59.8215 37.477C59.9789 37.741 60.1161 38.0203 60.2278 38.3047C60.3243 38.5281 60.4055 38.7566 60.4715 38.9902C60.5071 39.1121 60.5375 39.234 60.5528 39.3559V39.4828C60.7153 40.5188 60.0043 41.4887 58.9684 41.6512C58.9532 41.6512 58.9379 41.6563 58.9227 41.6563C58.1661 41.7832 57.3993 41.4887 56.9219 40.8895Z" fill="#422B0D"/>
<path d="M63.8328 48.3695C63.1219 47.0848 61.5781 46.5211 60.207 47.0391C54.9969 48.5574 49.5938 49.3141 44.1652 49.2887C38.7367 49.3141 33.3336 48.5574 28.1234 47.0391C26.7574 46.5211 25.2137 47.0797 24.5027 48.3594C23.8121 49.634 24.3098 51.1117 24.8938 52.3863C28.1539 59.5465 35.3395 63.8324 44.1246 63.8578H44.2059C52.991 63.8578 60.1766 59.5465 63.4418 52.3863C64.0207 51.1016 64.5234 49.6442 63.8328 48.3695Z" fill="#422B0D"/>
<path d="M52.2951 61.8367C52.1072 61.6641 51.9143 61.5066 51.7213 61.3289C49.6494 59.5059 46.9682 58.5258 44.2057 58.5816C41.3619 58.5359 38.5943 59.4805 36.3752 61.2578C36.1822 61.4152 35.9791 61.5676 35.7912 61.7656C35.6033 61.9637 35.5018 62.1059 35.3799 62.2734C38.1729 63.3652 41.1486 63.9238 44.1498 63.9086H44.2311C47.1053 63.9086 49.9541 63.3957 52.6455 62.3852C52.5439 62.1922 52.4271 62.0094 52.2951 61.8367Z" fill="#ED7770"/>
<path d="M60.2074 47.0391C54.9973 48.5574 49.5941 49.3141 44.1656 49.2887C38.7371 49.3141 33.334 48.5574 28.1238 47.0391C26.7578 46.5211 25.2141 47.0797 24.5031 48.3594C24.4016 48.5524 24.3203 48.7555 24.2695 48.9637C24.4371 49.05 24.6301 49.1363 24.8586 49.2278C30.9727 52.2899 37.7316 53.8438 44.5668 53.7625C51.1227 53.8387 57.6023 52.4117 63.5234 49.5985C63.7621 49.4969 63.9602 49.4004 64.1379 49.309C64.0973 48.9789 63.9906 48.6539 63.8332 48.3594C63.1223 47.0797 61.5785 46.516 60.2074 47.0391Z" fill="white"/>
<path d="M63.8531 48.3746C63.132 47.0899 61.5832 46.5211 60.202 47.0391C54.9918 48.5574 49.5887 49.3141 44.1652 49.2887C38.7367 49.3141 33.3336 48.5574 28.1234 47.0391C26.7574 46.5211 25.2137 47.0797 24.5027 48.3594C23.8121 49.634 24.3098 51.1117 24.8938 52.3863C25.1527 52.9602 25.4422 53.5238 25.7621 54.0672C25.7621 54.0672 24.6957 50.1164 25.6199 48.9688C25.9348 48.4813 26.4629 48.1766 27.0418 48.1461C27.2805 48.1461 27.5141 48.1867 27.7426 48.2578C33.0441 49.8168 38.5438 50.6039 44.0738 50.5938H44.2516C49.7816 50.6039 55.2813 49.8168 60.5828 48.2578C60.8113 48.1867 61.0449 48.1461 61.2836 48.1461C61.8625 48.1766 62.3957 48.4813 62.7106 48.9688C63.65 50.1164 62.5684 54.0824 62.5684 54.0824C62.8832 53.5391 63.198 52.9805 63.4621 52.4016C64.041 51.127 64.5438 49.6543 63.8531 48.3746Z" fill="#EB8F00"/>
<defs>
<radialGradient id="paint0_radial_1607_30890" cx="0" cy="0" r="1" gradientUnits="userSpaceOnUse" gradientTransform="translate(44.2969 43.9414) scale(28.9248 28.9248)">
<stop offset="0.5" stop-color="#FDE030"/>
<stop offset="0.92" stop-color="#F7C02B"/>
<stop offset="1" stop-color="#F4A223"/>
</radialGradient>
</defs>
</svg>