<?xml version="1.0" encoding="UTF-8"?>
<svg width="89" height="89" viewBox="0 0 89 89" fill="none" xmlns="http://www.w3.org/2000/svg">
<rect width="89" height="89" rx="4" fill="white" fill-opacity="0.15"/>
<path d="M44.2969 72.3282C30.1289 72.3282 14.8438 63.4414 14.8438 43.9414C14.8438 24.4414 30.1289 15.5547 44.2969 15.5547C52.168 15.5547 59.4297 18.1445 64.8125 22.8672C70.6523 28.0469 73.75 35.3594 73.75 43.9414C73.75 52.5235 70.6523 59.7852 64.8125 64.9649C59.4297 69.6875 52.1172 72.3282 44.2969 72.3282Z" fill="url(#paint0_radial_1607_30876)"/>
<path d="M68.6157 27.0668C71.3223 31.434 72.734 36.634 72.734 42.418C72.734 51 69.6364 58.2617 63.7965 63.4414C58.4137 68.1641 51.1012 70.8047 43.2809 70.8047C34.1098 70.8047 24.4918 67.0723 18.8145 59.1555C24.2785 68.1235 34.5567 72.3282 44.2965 72.3282C52.1168 72.3282 59.4293 69.6875 64.8122 64.9649C70.652 59.7852 73.7497 52.5235 73.7497 43.9414C73.7497 37.4719 71.9876 31.7234 68.6157 27.0668Z" fill="#707270"/>
<path d="M49.7292 56.0097H39.2694C38.8071 56.0097 38.4326 55.428 38.4326 54.7097C38.4326 53.9915 38.8071 53.4097 39.2694 53.4097H49.7292C50.1915 53.4097 50.566 53.9915 50.566 54.7097C50.566 55.428 50.1915 56.0097 49.7292 56.0097Z" fill="#422B0D"/>
<path d="M34.6836 35.3289C32.5559 35.3289 30.6211 37.1266 30.6211 40.1125C30.6211 43.0984 32.5559 44.891 34.6836 44.891C36.8113 44.891 38.7461 43.0934 38.7461 40.1125C38.7461 37.1317 36.8113 35.3289 34.6836 35.3289Z" fill="#422B0D"/>
<path d="M34.4857 37.3246C33.7646 36.9793 32.8962 37.284 32.5458 38.0051C32.2767 38.5688 32.3986 39.2442 32.8505 39.6809C33.5716 40.0262 34.44 39.7215 34.7904 39.0004C35.0595 38.4367 34.9376 37.7613 34.4857 37.3246Z" fill="#896024"/>
<path d="M54.1484 35.3289C52.0207 35.3289 50.0859 37.1266 50.0859 40.1125C50.0859 43.0984 52.0207 44.891 54.1484 44.891C56.2762 44.891 58.2109 43.0934 58.2109 40.1125C58.2109 37.1317 56.2863 35.3289 54.1484 35.3289Z" fill="#422B0D"/>
<path d="M53.9603 37.3246C53.2392 36.9793 52.3708 37.284 52.0204 38.0051C51.7513 38.5688 51.8732 39.2442 52.3251 39.6809C53.0462 40.0262 53.9146 39.7215 54.265 39.0004C54.5341 38.4367 54.4122 37.7613 53.9603 37.3246Z" fill="#896024"/>
<defs>
<radialGradient id="paint0_radial_1607_30876" cx="0" cy="0" r="1" gradientUnits="userSpaceOnUse" gradientTransform="translate(44.2969 43.9414) scale(28.9248 28.9249)">
<stop offset="0.5" stop-color="#E5E5E5"/>
<stop offset="0.92" stop-color="#B2B2B2"/>
<stop offset="1" stop-color="#707270"/>
</radialGradient>
</defs>
</svg>
