<?xml version="1.0" encoding="UTF-8"?>
<svg width="89" height="89" viewBox="0 0 89 89" fill="none" xmlns="http://www.w3.org/2000/svg">
<rect width="89" height="89" rx="4" fill="white" fill-opacity="0.15"/>
<path d="M44.2969 72.3281C30.1289 72.3281 14.8438 63.4414 14.8438 43.9414C14.8438 24.4414 30.1289 15.5547 44.2969 15.5547C52.168 15.5547 59.4297 18.1445 64.8125 22.8672C70.6523 28.0469 73.75 35.3594 73.75 43.9414C73.75 52.5234 70.6523 59.7852 64.8125 64.9648C59.4297 69.6875 52.1172 72.3281 44.2969 72.3281Z" fill="url(#paint0_radial_1607_30841)"/>
<path d="M68.6156 27.0668C71.3223 31.434 72.734 36.634 72.734 42.418C72.734 51 69.6363 58.2617 63.7965 63.4414C58.4137 68.1641 51.1012 70.8047 43.2809 70.8047C34.1098 70.8047 24.4918 67.0723 18.8145 59.1555C24.2785 68.1234 34.5566 72.3281 44.2965 72.3281C52.1168 72.3281 59.4293 69.6875 64.8121 64.9649C70.652 59.7852 73.7496 52.5234 73.7496 43.9414C73.7496 37.4719 71.9875 31.7234 68.6156 27.0668Z" fill="#154960"/>
<path d="M44.4999 56.2559C49.9944 56.2559 53.5542 60.2777 54.4784 62.1312C54.8339 62.8473 54.8542 63.4414 54.5495 63.7207C54.2296 63.9289 53.8132 63.9289 53.4933 63.7207C53.3359 63.6445 53.1784 63.5582 53.0362 63.4566C47.9327 59.8004 41.0722 59.8004 35.9687 63.4566C35.8265 63.5582 35.6741 63.6445 35.5116 63.7207C35.1917 63.934 34.7753 63.934 34.4554 63.7207C34.1507 63.4414 34.171 62.8473 34.5265 62.1312C35.4456 60.2828 39.0054 56.2559 44.4999 56.2559Z" fill="#422B0D"/>
<path d="M25.9088 32.1957C24.7916 32.3938 24.7357 34.0188 25.9545 34.0746C28.6459 34.1152 31.2459 33.1199 33.2264 31.2969C33.9779 30.6469 34.6178 29.8801 35.1104 29.0168C35.4049 28.5953 35.3033 28.0164 34.8869 27.7168C34.4705 27.4172 33.8865 27.5238 33.5869 27.9402L33.5361 27.991C31.5404 30.2203 28.8541 31.6981 25.9088 32.1957Z" fill="#422B0D"/>
<path d="M55.7329 28.0063L55.6821 27.9555C55.3875 27.534 54.8036 27.4324 54.3821 27.727C53.9606 28.0215 53.859 28.6055 54.1586 29.027C54.6563 29.8852 55.2961 30.652 56.0528 31.2969C58.0332 33.1199 60.6332 34.1102 63.3247 34.0645C64.5434 34.0086 64.4875 32.3836 63.3653 32.1856C60.42 31.693 57.7336 30.2203 55.7329 28.0063Z" fill="#422B0D"/>
<path d="M28.5352 62.2734C26.0831 62.2734 24.1875 59.7987 24.1875 57.6796C24.1875 56.1906 24.8281 54.4634 25.7353 52.0701C25.8483 51.7174 25.999 51.3617 26.1498 50.9698C26.5816 49.8485 26.9613 48.6338 27.541 47.5818C27.8164 47.0694 28.4396 46.8885 28.9294 47.1749C29.0917 47.2713 29.2279 47.41 29.3207 47.5818C29.8598 48.6157 30.2308 49.734 30.7902 51.0392C32.3757 54.7287 32.8192 56.2207 32.8192 57.7098C32.8742 59.8107 30.9496 62.2734 28.5352 62.2734Z" fill="#CAF9FF"/>
<path d="M30.8232 59.5966C30.192 60.6569 28.7578 60.4448 28.7578 58.7095C28.7578 57.5998 28.9693 51.9027 29.8615 52.7014C31.309 53.9985 31.722 58.1193 30.8232 59.5966Z" fill="white"/>
<path d="M34.6836 39.8992C32.5559 39.8992 30.6211 41.6969 30.6211 44.6828C30.6211 47.6688 32.5559 49.4613 34.6836 49.4613C36.8113 49.4613 38.7461 47.6637 38.7461 44.6828C38.7461 41.702 36.8113 39.8992 34.6836 39.8992Z" fill="#422B0D"/>
<path d="M34.4857 41.8949C33.7646 41.5496 32.8962 41.8543 32.5458 42.5754C32.2767 43.1391 32.3986 43.8145 32.8505 44.2512C33.5716 44.5965 34.44 44.2918 34.7904 43.5707C35.0595 43.007 34.9376 42.3317 34.4857 41.8949Z" fill="#896024"/>
<path d="M54.1484 39.8992C52.0207 39.8992 50.0859 41.6969 50.0859 44.6828C50.0859 47.6688 52.0207 49.4613 54.1484 49.4613C56.2762 49.4613 58.2109 47.6637 58.2109 44.6828C58.2109 41.702 56.2863 39.8992 54.1484 39.8992Z" fill="#422B0D"/>
<path d="M53.9603 41.8949C53.2392 41.5496 52.3708 41.8543 52.0204 42.5754C51.7513 43.1391 51.8732 43.8145 52.3251 44.2512C53.0462 44.5965 53.9146 44.2918 54.265 43.5707C54.5341 43.007 54.4122 42.3317 53.9603 41.8949Z" fill="#896024"/>
<defs>
<radialGradient id="paint0_radial_1607_30841" cx="0" cy="0" r="1" gradientUnits="userSpaceOnUse" gradientTransform="translate(44.2969 43.9414) scale(28.9248 28.9248)">
<stop offset="0.5" stop-color="#8AD2F1"/>
<stop offset="0.92" stop-color="#378FB6"/>
<stop offset="1" stop-color="#195A76"/>
</radialGradient>
</defs>
</svg>
