<?xml version="1.0" encoding="UTF-8"?>
<svg width="89" height="89" viewBox="0 0 89 89" fill="none" xmlns="http://www.w3.org/2000/svg">
<rect width="89" height="89" rx="4" fill="white" fill-opacity="0.15"/>
<path d="M44.2969 72.3281C30.1289 72.3281 14.8438 63.4414 14.8438 43.9414C14.8438 24.4414 30.1289 15.5547 44.2969 15.5547C52.168 15.5547 59.4297 18.1445 64.8125 22.8672C70.6523 28.0469 73.75 35.3594 73.75 43.9414C73.75 52.5234 70.6523 59.7852 64.8125 64.9648C59.4297 69.6875 52.1172 72.3281 44.2969 72.3281Z" fill="url(#paint0_radial_1607_30861)"/>
<path d="M68.6156 27.0668C71.3223 31.434 72.734 36.634 72.734 42.4179C72.734 51 69.6363 58.2617 63.7965 63.4414C58.4137 68.164 51.1012 70.8047 43.2809 70.8047C34.1098 70.8047 24.4918 67.0722 18.8145 59.1554C24.2785 68.1234 34.5566 72.3281 44.2965 72.3281C52.1168 72.3281 59.4293 69.6875 64.8121 64.9648C70.652 59.7851 73.7496 52.5234 73.7496 43.9414C73.7496 37.4719 71.9875 31.7234 68.6156 27.0668Z" fill="#651EAA"/>
<path d="M36.679 39.7773L36.5775 39.8789L36.3236 40.1328C36.222 40.2344 36.1204 40.2851 35.9681 40.4375C35.8056 40.5695 35.638 40.6863 35.4603 40.793C35.2571 40.8945 35.054 41.0469 34.8509 41.1484C34.6478 41.25 34.3939 41.3515 34.14 41.4531C33.8911 41.5445 33.6372 41.6105 33.3782 41.6562C33.1091 41.7019 32.84 41.7172 32.5657 41.707H32.1087C31.9868 41.7172 31.865 41.6969 31.7532 41.6562C31.4943 41.6105 31.2404 41.5445 30.9915 41.4531C30.7478 41.3719 30.5091 41.2703 30.2806 41.1484C30.0775 41.0469 29.8743 40.8945 29.6712 40.793C29.3157 40.539 29.0111 40.2851 28.8079 40.1328L28.5032 39.8281L28.4017 39.7265C27.7466 39.1375 26.7665 39.0969 26.0657 39.625C25.5732 40.0109 25.4056 40.6812 25.6595 41.25L25.7611 41.4023C25.8169 41.5445 25.888 41.6765 25.9642 41.8086C26.2739 42.3316 26.6497 42.809 27.0814 43.2305C27.381 43.525 27.706 43.7992 28.0462 44.043C28.4474 44.3223 28.8689 44.5609 29.3157 44.7539C29.8032 44.9773 30.3161 45.1449 30.8392 45.2617L31.7025 45.4141C31.8548 45.4141 32.0579 45.4648 32.1087 45.4648H32.515C33.0786 45.4648 33.6372 45.414 34.1907 45.3125C34.7189 45.2058 35.2267 45.0332 35.7142 44.8047C36.1611 44.6117 36.5825 44.373 36.9837 44.0937C37.3392 43.8652 37.6642 43.591 37.9486 43.2812C38.1974 43.0527 38.4208 42.7988 38.6087 42.5195C38.7103 42.418 38.7611 42.2656 38.8626 42.1641C38.9642 42.0625 39.015 41.9609 39.0657 41.8594C39.1521 41.7375 39.2232 41.6004 39.2689 41.4531L39.3196 41.3515C39.6345 40.6406 39.3095 39.8027 38.5986 39.4879C38.5376 39.4625 38.4716 39.4371 38.4056 39.4219C37.8114 39.1629 37.1208 39.3051 36.679 39.7773Z" fill="#422B0D"/>
<path d="M59.4798 39.7773L59.3782 39.8789L59.1243 40.1328C59.0228 40.2344 58.9212 40.2851 58.7689 40.4375C58.6064 40.5695 58.4388 40.6863 58.2611 40.793C58.0579 40.8945 57.8548 41.0469 57.6517 41.1484C57.4486 41.25 57.1946 41.3515 56.9407 41.4531C56.6919 41.5445 56.438 41.6105 56.179 41.6562C55.9099 41.7019 55.6407 41.7172 55.3665 41.707H54.9095C54.7876 41.7121 54.6708 41.6918 54.554 41.6562C54.295 41.6105 54.0411 41.5445 53.7923 41.4531C53.5486 41.3719 53.3099 41.2703 53.0814 41.1484C52.8782 41.0469 52.6751 40.8945 52.472 40.793C52.1165 40.539 51.8118 40.2851 51.6087 40.1328L51.304 39.8281L51.2025 39.7265C50.5474 39.1375 49.5673 39.0969 48.8665 39.625C48.3739 40.0109 48.2064 40.6812 48.4603 41.25L48.5618 41.4023C48.6177 41.5445 48.6888 41.6765 48.765 41.8086C49.0747 42.3316 49.4505 42.809 49.8821 43.2305C50.1818 43.525 50.5068 43.7992 50.847 44.043C51.2482 44.3223 51.6696 44.5609 52.1165 44.7539C52.604 44.9773 53.1169 45.1449 53.64 45.2617L54.5032 45.4141C54.6556 45.4141 54.8587 45.4648 54.9095 45.4648H55.3157C55.8794 45.4648 56.438 45.414 56.9915 45.3125C57.5196 45.2058 58.0275 45.0332 58.515 44.8047C58.9618 44.6117 59.3833 44.373 59.7845 44.0937C60.1501 43.8754 60.4751 43.6012 60.7493 43.2812C60.9982 43.0527 61.2216 42.7988 61.4095 42.5195C61.5111 42.418 61.5618 42.2656 61.6634 42.1641C61.765 42.0625 61.8157 41.9609 61.8665 41.8594C61.9528 41.7375 62.0239 41.6004 62.0696 41.4531L62.1204 41.3515C62.4353 40.6406 62.1103 39.8027 61.3993 39.4879C61.3384 39.4625 61.2724 39.4371 61.2064 39.4219C60.6122 39.1629 59.9216 39.3051 59.4798 39.7773Z" fill="#422B0D"/>
<path d="M51.2021 22.9687C51.0295 22.8723 50.8416 22.8012 50.6435 22.7656C50.4404 22.6641 50.1865 22.6133 49.9834 22.5117L48.917 22.207C48.5107 22.0547 48.0537 21.9531 47.6474 21.8008C46.8349 21.5469 45.8193 20.8867 45.3115 22.0547C45.1744 22.3035 45.1033 22.5828 45.1084 22.8672C45.1084 23.2734 45.4131 23.4765 45.7685 23.6289C46.1443 23.7965 46.5353 23.9285 46.9365 24.0351C47.0634 24.1012 47.2006 24.1316 47.3427 24.1367C47.4443 24.1367 47.5459 24.1875 47.5459 24.2891C47.5459 24.3906 47.4443 24.3906 47.3935 24.4414C47.3427 24.4922 47.1904 24.5937 47.0888 24.6445L46.9365 24.7461C46.6623 24.9492 46.3728 25.1371 46.0732 25.3047C45.8701 25.457 45.6162 25.6094 45.4131 25.7617C45.3013 25.8125 45.1998 25.8785 45.1084 25.9648C44.8088 26.168 44.5193 26.3914 44.2451 26.625L44.1435 26.7265C43.8693 26.9449 43.6713 27.2496 43.5849 27.5898C43.5341 28.0469 43.8896 28.25 44.2959 28.4531L44.7529 28.6055C45.2861 28.8035 45.8295 28.9762 46.3779 29.1133C46.7841 29.2656 47.2412 29.3672 47.6474 29.5195C48.4599 29.7734 49.4756 30.4336 49.9834 29.2656C50.1205 29.0168 50.1916 28.7375 50.1865 28.4531C50.1357 28.0926 49.8767 27.793 49.5263 27.6914C49.1506 27.5238 48.7595 27.3918 48.3584 27.2851C48.2568 27.2851 48.206 27.2344 48.1045 27.1836C48.0029 27.1328 47.9521 27.1328 47.9013 27.1328C47.7998 27.0312 48.0029 26.9297 48.0537 26.8789C48.267 26.7621 48.4701 26.625 48.6631 26.4726C48.8763 26.3355 49.0795 26.1832 49.2724 26.0156C49.374 25.9648 49.4756 25.8633 49.5771 25.8125C49.7802 25.6601 50.0341 25.5078 50.2373 25.3555C50.7959 24.8984 52.0654 24.3398 51.6591 23.4766C51.5525 23.2734 51.3951 23.0957 51.2021 22.9687Z" fill="white"/>
<path d="M61.3076 18.1445C61.1146 18.0531 60.9064 17.9871 60.6982 17.9414C60.4443 17.8906 60.1904 17.789 59.9365 17.7383C59.5303 17.6367 59.124 17.5859 58.7686 17.4844C58.3115 17.3828 57.8037 17.2305 57.3467 17.1289C56.4326 16.9258 55.2646 16.3164 54.8076 17.6367C54.6857 17.9262 54.6299 18.2359 54.6553 18.5508C54.7061 19.0078 55.0615 19.2109 55.4678 19.3125C55.8842 19.4547 56.3057 19.5715 56.7373 19.668C56.8896 19.7187 57.042 19.7187 57.1943 19.7695C57.3467 19.8203 57.3975 19.8203 57.3975 19.9219C57.3975 20.0234 57.2959 20.0742 57.2451 20.125C57.1943 20.1758 57.042 20.2773 56.9404 20.3789C56.8389 20.4805 56.8389 20.4297 56.7881 20.4805C56.4834 20.7344 56.1787 20.9375 55.874 21.1914L55.1631 21.75C55.0615 21.8008 54.96 21.9023 54.8584 21.9531C54.5537 22.207 54.249 22.4609 53.9951 22.7148C53.9443 22.7656 53.8936 22.7656 53.8936 22.8164C53.5838 23.0703 53.3857 23.4359 53.335 23.832C53.335 24.3398 53.7412 24.543 54.1982 24.7461L54.7061 24.8984C55.29 25.0812 55.8842 25.2336 56.4834 25.3555C56.9404 25.457 57.4482 25.6094 57.9053 25.7109C58.8193 25.914 59.9873 26.5234 60.4443 25.2031C60.5662 24.9137 60.6221 24.6039 60.5967 24.289C60.5459 23.832 60.1904 23.6289 59.7842 23.5273C59.3525 23.3801 58.9107 23.2582 58.4639 23.1719C58.3623 23.1719 58.2607 23.1211 58.1592 23.1211C58.0576 23.1211 57.9561 23.1211 57.9053 23.0703C57.8545 23.0195 58.0068 22.8672 58.0576 22.8164C58.2607 22.664 58.4639 22.5117 58.7178 22.3086L59.3779 21.8008C59.4896 21.7043 59.6064 21.618 59.7334 21.5469C59.9822 21.3742 60.2158 21.1863 60.4443 20.9883C61.0029 20.4297 62.374 19.7695 61.8154 18.8047C61.7494 18.5203 61.5615 18.2816 61.3076 18.1445Z" fill="white"/>
<path d="M74.7646 16.5703C74.5717 16.2453 74.2924 15.9762 73.9522 15.8086C73.6881 15.7019 73.4189 15.6156 73.1397 15.5547C72.8096 15.448 72.4693 15.3617 72.124 15.3008C71.6162 15.1484 71.0576 15.0469 70.5498 14.9453C69.9404 14.793 69.2803 14.5898 68.6709 14.4375C67.4521 14.1328 65.9287 13.3203 65.2686 15.0976C65.101 15.4836 65.035 15.9 65.0654 16.3164C65.1568 16.8547 65.5936 17.266 66.1318 17.332C66.7006 17.5148 67.2744 17.6672 67.8584 17.7891C68.0615 17.8398 68.2646 17.8906 68.417 17.9414C68.5693 17.9922 68.7217 17.9922 68.7217 18.1445C68.7014 18.2562 68.6252 18.3527 68.5186 18.3984C68.3662 18.5 68.2646 18.6016 68.1123 18.7031C68.0564 18.7641 67.9854 18.8199 67.9092 18.8555C67.5029 19.1601 67.0967 19.4648 66.7412 19.7695L65.8271 20.5312C65.7002 20.643 65.5631 20.7445 65.4209 20.8359C65.0146 21.1406 64.6592 21.4961 64.2529 21.8516L64.1006 22.0039C63.6943 22.3289 63.4354 22.8062 63.3896 23.3242C63.3896 23.9844 63.9482 24.2891 64.5576 24.543C64.7709 24.6344 64.9893 24.7004 65.2178 24.7461H65.2686C66.0303 25 66.8428 25.1523 67.6553 25.3555L69.5342 25.8125C70.7529 26.1172 72.3272 26.9297 72.9365 25.1523C73.1041 24.7664 73.1701 24.35 73.1397 23.9336C73.0482 23.3953 72.6115 22.984 72.0732 22.918C71.5147 22.7047 70.9357 22.532 70.3467 22.4101C70.1943 22.3594 70.0928 22.3594 69.9404 22.3086C69.8287 22.3086 69.7271 22.273 69.6357 22.207C69.4834 22.0547 69.7373 21.9023 69.8389 21.8516C70.1385 21.6484 70.4279 21.425 70.7021 21.1914C71.0068 20.9375 71.3115 20.7344 71.5654 20.4805C71.7279 20.3789 71.8854 20.257 72.0225 20.125C72.3475 19.9016 72.6572 19.6426 72.9365 19.3633C73.6982 18.7031 75.4756 17.7891 74.7646 16.5703Z" fill="white"/>
<path d="M40.285 62.4258C38.3401 62.3902 36.7912 60.7805 36.8268 58.8355C36.8369 58.1805 37.035 57.5406 37.3904 56.9922C38.9647 54.5547 41.4529 53.2852 44.4998 53.2852C47.5467 53.2852 50.035 54.5547 51.6092 56.9922C52.3151 58.0586 52.3709 59.4246 51.7615 60.5469C51.1572 61.6742 49.9944 62.3953 48.7147 62.4258C48.3135 62.4359 47.9174 62.3699 47.5467 62.2227C46.5666 61.8824 45.5358 61.7098 44.4998 61.7148C43.4639 61.7047 42.433 61.8773 41.4529 62.2227C41.0772 62.3598 40.6811 62.4309 40.285 62.4258Z" fill="#422B0D"/>
<defs>
<radialGradient id="paint0_radial_1607_30861" cx="0" cy="0" r="1" gradientUnits="userSpaceOnUse" gradientTransform="translate(44.2969 43.9414) scale(28.9248 28.9248)">
<stop offset="0.5" stop-color="#D3B7F7"/>
<stop offset="0.92" stop-color="#A562FC"/>
<stop offset="1" stop-color="#8335D0"/>
</radialGradient>
</defs>
</svg>



