<svg width="20" height="18" viewBox="0 0 20 18" fill="none" xmlns="http://www.w3.org/2000/svg">
<path d="M19.0509 15.7081L11.062 0.872219C10.4958 -0.179656 8.98734 -0.179656 8.42063 0.872219L0.432194 15.7081C0.309246 15.9365 0.247606 16.1928 0.25329 16.4521C0.258974 16.7114 0.331787 16.9648 0.464622 17.1875C0.597458 17.4103 0.785777 17.5948 1.0112 17.723C1.23662 17.8513 1.49144 17.9189 1.75079 17.9192H17.73C17.9895 17.9193 18.2447 17.852 18.4704 17.7239C18.6961 17.5958 18.8848 17.4113 19.0179 17.1885C19.151 16.9657 19.224 16.7122 19.2298 16.4527C19.2356 16.1932 19.174 15.9367 19.0509 15.7081ZM9.74156 15.6224C9.55614 15.6224 9.37489 15.5674 9.22072 15.4644C9.06655 15.3614 8.94638 15.2149 8.87543 15.0436C8.80447 14.8723 8.7859 14.6838 8.82208 14.502C8.85825 14.3201 8.94754 14.1531 9.07865 14.022C9.20976 13.8908 9.37681 13.8016 9.55867 13.7654C9.74052 13.7292 9.92902 13.7478 10.1003 13.8187C10.2716 13.8897 10.4181 14.0098 10.5211 14.164C10.6241 14.3182 10.6791 14.4994 10.6791 14.6849C10.6791 14.808 10.6548 14.9299 10.6077 15.0436C10.5606 15.1574 10.4915 15.2607 10.4045 15.3478C10.3174 15.4348 10.2141 15.5039 10.1003 15.551C9.98659 15.5981 9.86468 15.6224 9.74156 15.6224ZM10.7597 6.19347L10.4906 11.9122C10.4906 12.1111 10.4116 12.3019 10.271 12.4425C10.1303 12.5832 9.93954 12.6622 9.74063 12.6622C9.54171 12.6622 9.35095 12.5832 9.2103 12.4425C9.06964 12.3019 8.99063 12.1111 8.99063 11.9122L8.72156 6.19581C8.71552 6.05921 8.73703 5.92279 8.78483 5.79469C8.83263 5.66658 8.90573 5.54941 8.99978 5.45016C9.09383 5.35091 9.20689 5.2716 9.33224 5.21698C9.45759 5.16236 9.59265 5.13353 9.72938 5.13222H9.73922C9.87688 5.13215 10.0131 5.15996 10.1397 5.214C10.2663 5.26803 10.3807 5.34715 10.4759 5.44659C10.5711 5.54603 10.6451 5.66373 10.6936 5.79258C10.742 5.92142 10.7639 6.05875 10.7578 6.19628L10.7597 6.19347Z" fill="white"/>
</svg>
